<svg width="16" height="16" viewBox="0 0 16 16" fill="none" xmlns="http://www.w3.org/2000/svg">
<g clip-path="url(#clip0_1_12438)">
<path d="M8.00004 14.6666C11.6819 14.6666 14.6667 11.6818 14.6667 7.99992C14.6667 4.31802 11.6819 1.33325 8.00004 1.33325C4.31814 1.33325 1.33337 4.31802 1.33337 7.99992C1.33337 11.6818 4.31814 14.6666 8.00004 14.6666Z" stroke="#475569" stroke-linecap="round" stroke-linejoin="round"/>
<path d="M6.05994 5.99989C6.21667 5.55434 6.52604 5.17863 6.93324 4.93931C7.34044 4.7 7.8192 4.61252 8.28472 4.69237C8.75024 4.77222 9.17248 5.01424 9.47665 5.37558C9.78083 5.73691 9.94731 6.19424 9.9466 6.66656C9.9466 7.99989 7.9466 8.66656 7.9466 8.66656" stroke="#475569" stroke-linecap="round" stroke-linejoin="round"/>
<path d="M8 11.3333H8.00667" stroke="#475569" stroke-linecap="round" stroke-linejoin="round"/>
</g>
<defs>
<clipPath id="clip0_1_12438">
<rect width="16" height="16" fill="white"/>
</clipPath>
</defs>
</svg>
