<svg width="16" height="16" viewBox="0 0 16 16" fill="none" xmlns="http://www.w3.org/2000/svg">
<path d="M10.6668 14V12.6667C10.6668 11.9594 10.3859 11.2811 9.88578 10.781C9.38568 10.281 8.70741 10 8.00016 10H4.00016C3.29292 10 2.61464 10.281 2.11454 10.781C1.61445 11.2811 1.3335 11.9594 1.3335 12.6667V14" stroke="#334155" stroke-linecap="round" stroke-linejoin="round"/>
<path d="M6.00016 7.33333C7.47292 7.33333 8.66683 6.13943 8.66683 4.66667C8.66683 3.19391 7.47292 2 6.00016 2C4.5274 2 3.3335 3.19391 3.3335 4.66667C3.3335 6.13943 4.5274 7.33333 6.00016 7.33333Z" stroke="#334155" stroke-linecap="round" stroke-linejoin="round"/>
<path d="M14.6665 14V12.6667C14.6661 12.0758 14.4694 11.5019 14.1074 11.0349C13.7454 10.5679 13.2386 10.2344 12.6665 10.0867" stroke="#334155" stroke-linecap="round" stroke-linejoin="round"/>
<path d="M10.6665 2.08667C11.2401 2.23354 11.7485 2.56714 12.1116 3.03488C12.4747 3.50262 12.6717 4.07789 12.6717 4.67C12.6717 5.26212 12.4747 5.83739 12.1116 6.30513C11.7485 6.77287 11.2401 7.10647 10.6665 7.25334" stroke="#334155" stroke-linecap="round" stroke-linejoin="round"/>
</svg>
